<?xml version="1.0" encoding="UTF-8" standalone="no"?>
<!DOCTYPE svg PUBLIC "-//W3C//DTD SVG 1.1//EN" "http://www.w3.org/Graphics/SVG/1.1/DTD/svg11.dtd">
<svg width="143" height="191" viewBox="0 0 143 191" fill="none" xmlns="http://www.w3.org/2000/svg">
	<path d="M110.732 7.44778C71.9597 -4.76823 45.7724 -1.77919 5 15.1098V107.128L110.732 7.44778Z" fill="white"/>
	<path d="M68.5 191L132 127.945V41.0559L24.7488 147.555L68.5 191Z" fill="white"/>
	<path d="M35.4544 126.813L22.1298 139.733C21.766 140.085 21.4237 140.269 21.1029 140.283C20.7827 140.259 20.4462 140.065 20.0935 139.701L2.05004 121.093C1.69733 120.729 1.52331 120.396 1.52796 120.095C1.53319 119.755 1.71768 119.409 2.08143 119.056L15.4061 106.136C15.7698 105.784 16.1118 105.619 16.432 105.643C16.7528 105.629 17.0896 105.804 17.4423 106.168L20.7002 109.528C21.0529 109.891 21.2266 110.243 21.2214 110.582C21.2167 110.884 21.0325 111.211 20.6688 111.564L12.7429 119.249L14.887 121.46L20.4868 116.031C20.8505 115.678 21.1925 115.513 21.5127 115.537C21.8335 115.523 22.1703 115.698 22.523 116.062L25.5024 119.135C25.8551 119.498 26.0288 119.85 26.0236 120.189C26.0189 120.491 25.8347 120.818 25.471 121.171L19.8712 126.601L22.2659 129.07L30.1917 121.385C30.5555 121.032 30.8975 120.868 31.2177 120.892C31.5385 120.878 31.8752 121.053 32.2279 121.417L35.4858 124.776C35.8385 125.14 36.0122 125.492 36.007 125.831C36.0024 126.133 35.8182 126.46 35.4544 126.813ZM49.3646 111.319C49.7173 111.683 49.891 112.034 49.8858 112.374C49.8812 112.675 49.697 113.003 49.3332 113.355L44.9682 117.588C44.6045 117.94 44.2622 118.124 43.9414 118.138C43.6212 118.114 43.2847 117.92 42.932 117.556L39.9526 114.484C39.0987 113.603 38.5348 112.868 38.261 112.279C37.9872 111.691 37.7732 110.895 37.6189 109.893L36.9099 104.508L31.5487 103.633C30.5329 103.466 29.735 103.237 29.1549 102.945C28.5939 102.635 27.8865 102.04 27.0326 101.159L24.8885 98.9477C24.5358 98.584 24.3618 98.2513 24.3664 97.9496C24.3717 97.6102 24.5562 97.2642 24.9199 96.9115L29.3423 92.6234C29.7061 92.2707 30.048 92.1062 30.3683 92.13C30.6891 92.1161 31.0258 92.291 31.3785 92.6548L33.2998 94.6363C33.4855 94.8277 33.69 95.0194 33.9133 95.2115C34.1366 95.4035 34.4081 95.5303 34.7278 95.5918L37.7455 96.1758C37.9898 96.2361 38.2062 96.2677 38.3947 96.2706C38.5838 96.2358 38.755 96.1442 38.9081 95.9957L39.2527 95.6615C39.4059 95.513 39.4932 95.3541 39.5147 95.1847C39.5176 94.9961 39.5022 94.7696 39.4686 94.5051L39.0066 91.4429C38.955 91.1215 38.8366 90.8462 38.6516 90.6171C38.4665 90.3879 38.2812 90.1776 38.0956 89.9862L36.1743 88.0047C35.8216 87.6409 35.6475 87.3082 35.6522 87.0066C35.6574 86.6672 35.8419 86.3212 36.2057 85.9685L40.5706 81.736C40.9344 81.3833 41.2764 81.2189 41.5966 81.2427C41.9174 81.2288 42.2542 81.4037 42.6069 81.7674L44.7509 83.9786C45.6048 84.8593 46.1687 85.594 46.4425 86.1829C46.7163 86.7717 46.9303 87.567 47.0846 88.5689L47.8215 93.9832L53.1548 94.8292C54.1706 94.9957 54.9589 95.2342 55.5199 95.5446C56.1 95.8364 56.817 96.4226 57.6709 97.3033L60.6503 100.376C61.0031 100.74 61.1768 101.091 61.1716 101.431C61.1669 101.732 60.9827 102.06 60.619 102.412L56.254 106.645C55.8902 106.997 55.548 107.181 55.2272 107.195C54.9069 107.171 54.5705 106.977 54.2178 106.613L51.4611 103.77C51.2755 103.579 51.071 103.387 50.8477 103.195C50.6243 103.003 50.3528 102.876 50.0332 102.815L47.0154 102.231C46.7335 102.17 46.5075 102.148 46.3375 102.164C46.1676 102.18 46.006 102.262 45.8528 102.411L45.4508 102.801C45.2976 102.949 45.2103 103.108 45.1889 103.278C45.1674 103.447 45.1828 103.673 45.235 103.957L45.6969 107.019C45.7485 107.341 45.8669 107.616 46.0519 107.845C46.237 108.074 46.4223 108.285 46.608 108.476L49.3646 111.319ZM85.3243 78.4571L70.7073 92.6302C70.3436 92.9829 70.0013 93.1662 69.6805 93.1801C69.3603 93.1563 69.0238 92.9625 68.6711 92.5988L50.6276 73.9902C50.2749 73.6265 50.1009 73.2938 50.1055 72.9921C50.1108 72.6527 50.2953 72.3067 50.659 71.954L55.1101 67.638C55.4739 67.2853 55.8159 67.1209 56.1361 67.1447C56.4569 67.1308 56.7937 67.3057 57.1464 67.6694L70.9296 81.8843L74.8638 78.0696L70.3529 73.4174C70.0002 73.0537 69.8262 72.721 69.8309 72.4193C69.8361 72.0799 70.0206 71.7339 70.3843 71.3812L74.5483 67.3437C74.912 66.991 75.254 66.8265 75.5742 66.8503C75.8951 66.8364 76.2318 67.0113 76.5845 67.3751L85.3557 76.4209C85.7084 76.7847 85.8821 77.1362 85.8769 77.4756C85.8722 77.7772 85.688 78.1044 85.3243 78.4571ZM106.203 47.6821C107.057 48.5627 107.703 49.4967 108.14 50.4841C108.578 51.4338 108.712 52.4919 108.544 53.6586C108.375 54.7875 107.846 56.0617 106.957 57.4812C106.087 58.8822 104.762 60.4459 102.981 62.1722C101.201 63.8986 99.5873 65.1844 98.141 66.0296C96.6947 66.8748 95.3952 67.3734 94.2425 67.5253C93.0904 67.6396 92.0369 67.4725 91.082 67.024C90.1277 66.5378 89.2236 65.8544 88.3697 64.9738L78.8746 55.1813C78.0207 54.3006 77.3748 53.3855 76.9368 52.4358C76.4994 51.4484 76.3556 50.3807 76.5053 49.2326C76.6742 48.066 77.2033 46.7729 78.0927 45.3534C78.982 43.9339 80.3169 42.3609 82.0974 40.6345C83.8778 38.9082 85.4816 37.6317 86.9087 36.805C88.355 35.9598 89.6542 35.4801 90.8063 35.3659C91.9776 35.2331 93.0404 35.4098 93.9947 35.8959C94.9495 36.3444 95.8539 37.0089 96.7078 37.8896L106.203 47.6821ZM93.8861 57.6192C94.2573 58.002 94.7165 58.1883 95.2635 58.1779C95.792 58.1483 96.5732 57.6323 97.607 56.6299C98.6408 55.6275 99.1806 54.8626 99.2265 54.3353C99.2538 53.7888 99.0818 53.3241 98.7105 52.9412L91.2202 45.2164C90.8675 44.8526 90.4269 44.6855 89.8984 44.7151C89.3514 44.7255 88.5609 45.2319 87.5271 46.2343C86.4933 47.2368 85.9628 48.0112 85.9355 48.5577C85.8897 49.085 86.0431 49.5306 86.3958 49.8943L93.8861 57.6192ZM135.223 30.0734L126.177 38.8445C123.784 41.1649 121.54 42.4127 119.444 42.5878C117.367 42.7444 115.363 41.8271 113.433 39.8361L104.745 30.8764C102.815 28.8854 101.96 26.8543 102.18 24.7833C102.42 22.6937 103.736 20.4887 106.129 18.1683L113.308 11.2071C113.672 10.8544 114.014 10.6899 114.334 10.7137C114.655 10.6998 114.992 10.8747 115.345 11.2385L118.714 14.7132C119.067 15.077 119.24 15.4285 119.235 15.7679C119.23 16.0696 119.046 16.3968 118.682 16.7495L112.709 22.5412C112.116 23.1167 111.796 23.668 111.75 24.1954C111.686 24.7036 111.886 25.197 112.35 25.6756L119.005 32.5389C119.469 33.0175 119.918 33.2696 120.351 33.2952C120.803 33.3021 121.25 33.0921 121.69 32.6652L124.476 29.9642L120.132 25.4844C119.779 25.1206 119.605 24.7879 119.61 24.4863C119.615 24.1469 119.799 23.8009 120.163 23.4482L124.614 19.1322C124.978 18.7795 125.32 18.6151 125.64 18.6388C125.961 18.6249 126.298 18.7999 126.651 19.1636L135.255 28.0371C135.607 28.4009 135.781 28.7524 135.776 29.0918C135.771 29.3935 135.587 29.7207 135.223 30.0734Z" fill="white"/>
</svg>
