<?xml version="1.0" encoding="UTF-8" standalone="no"?>
<!DOCTYPE svg PUBLIC "-//W3C//DTD SVG 1.1//EN" "http://www.w3.org/Graphics/SVG/1.1/DTD/svg11.dtd">
<svg width="456" height="456" viewBox="0 0 456 456" fill="none" xmlns="http://www.w3.org/2000/svg">
	<rect width="456" height="456" fill="#28B6F2"/>
	<path d="M266.732 139.448C227.96 127.232 201.772 130.221 161 147.11V239.128L266.732 139.448Z" fill="white"/>
	<path d="M224.5 323L288 259.945V173.056L180.749 279.555L224.5 323Z" fill="white"/>
	<path d="M191.454 258.813L178.13 271.733C177.766 272.085 177.424 272.269 177.103 272.283C176.783 272.259 176.446 272.065 176.094 271.701L158.05 253.093C157.697 252.729 157.523 252.396 157.528 252.095C157.533 251.755 157.718 251.409 158.081 251.056L171.406 238.136C171.77 237.784 172.112 237.619 172.432 237.643C172.753 237.629 173.09 237.804 173.442 238.168L176.7 241.528C177.053 241.891 177.227 242.243 177.221 242.582C177.217 242.884 177.033 243.211 176.669 243.564L168.743 251.249L170.887 253.46L176.487 248.031C176.851 247.678 177.192 247.513 177.513 247.537C177.834 247.523 178.17 247.698 178.523 248.062L181.502 251.135C181.855 251.498 182.029 251.85 182.024 252.189C182.019 252.491 181.835 252.818 181.471 253.171L175.871 258.601L178.266 261.07L186.192 253.385C186.555 253.032 186.897 252.868 187.218 252.892C187.538 252.878 187.875 253.053 188.228 253.417L191.486 256.776C191.839 257.14 192.012 257.492 192.007 257.831C192.002 258.133 191.818 258.46 191.454 258.813ZM205.365 243.319C205.717 243.683 205.891 244.034 205.886 244.374C205.881 244.675 205.697 245.003 205.333 245.355L200.968 249.588C200.604 249.94 200.262 250.124 199.941 250.138C199.621 250.114 199.285 249.92 198.932 249.556L195.953 246.484C195.099 245.603 194.535 244.868 194.261 244.279C193.987 243.691 193.773 242.895 193.619 241.893L192.91 236.508L187.549 235.633C186.533 235.466 185.735 235.237 185.155 234.945C184.594 234.635 183.886 234.04 183.033 233.159L180.889 230.948C180.536 230.584 180.362 230.251 180.366 229.95C180.372 229.61 180.556 229.264 180.92 228.912L185.342 224.623C185.706 224.271 186.048 224.106 186.368 224.13C186.689 224.116 187.026 224.291 187.379 224.655L189.3 226.636C189.485 226.828 189.69 227.019 189.913 227.211C190.137 227.403 190.408 227.53 190.728 227.592L193.746 228.176C193.99 228.236 194.206 228.268 194.395 228.271C194.584 228.236 194.755 228.144 194.908 227.996L195.253 227.662C195.406 227.513 195.493 227.354 195.515 227.185C195.518 226.996 195.502 226.77 195.469 226.505L195.007 223.443C194.955 223.121 194.837 222.846 194.652 222.617C194.467 222.388 194.281 222.178 194.096 221.986L192.174 220.005C191.822 219.641 191.648 219.308 191.652 219.007C191.657 218.667 191.842 218.321 192.206 217.968L196.571 213.736C196.934 213.383 197.276 213.219 197.597 213.243C197.917 213.229 198.254 213.404 198.607 213.767L200.751 215.979C201.605 216.859 202.169 217.594 202.442 218.183C202.716 218.772 202.93 219.567 203.085 220.569L203.821 225.983L209.155 226.829C210.171 226.996 210.959 227.234 211.52 227.545C212.1 227.836 212.817 228.423 213.671 229.303L216.65 232.376C217.003 232.74 217.177 233.091 217.172 233.431C217.167 233.732 216.983 234.06 216.619 234.412L212.254 238.645C211.89 238.997 211.548 239.181 211.227 239.195C210.907 239.171 210.57 238.977 210.218 238.613L207.461 235.77C207.275 235.579 207.071 235.387 206.848 235.195C206.624 235.003 206.353 234.876 206.033 234.815L203.015 234.231C202.733 234.17 202.508 234.148 202.338 234.164C202.168 234.18 202.006 234.262 201.853 234.411L201.451 234.801C201.298 234.949 201.21 235.108 201.189 235.278C201.167 235.447 201.183 235.673 201.235 235.957L201.697 239.019C201.749 239.341 201.867 239.616 202.052 239.845C202.237 240.074 202.422 240.285 202.608 240.476L205.365 243.319ZM241.324 210.457L226.707 224.63C226.344 224.983 226.001 225.166 225.681 225.18C225.36 225.156 225.024 224.963 224.671 224.599L206.628 205.99C206.275 205.626 206.101 205.294 206.106 204.992C206.111 204.653 206.295 204.307 206.659 203.954L211.11 199.638C211.474 199.285 211.816 199.121 212.136 199.145C212.457 199.131 212.794 199.306 213.146 199.669L226.93 213.884L230.864 210.07L226.353 205.417C226 205.054 225.826 204.721 225.831 204.419C225.836 204.08 226.021 203.734 226.384 203.381L230.548 199.344C230.912 198.991 231.254 198.827 231.574 198.85C231.895 198.836 232.232 199.011 232.585 199.375L241.356 208.421C241.708 208.785 241.882 209.136 241.877 209.476C241.872 209.777 241.688 210.104 241.324 210.457ZM262.203 179.682C263.057 180.563 263.703 181.497 264.14 182.484C264.578 183.434 264.712 184.492 264.544 185.659C264.375 186.787 263.846 188.062 262.957 189.481C262.087 190.882 260.762 192.446 258.981 194.172C257.201 195.899 255.587 197.184 254.141 198.03C252.695 198.875 251.395 199.373 250.243 199.525C249.09 199.64 248.037 199.472 247.082 199.024C246.128 198.538 245.224 197.854 244.37 196.974L234.875 187.181C234.021 186.301 233.375 185.385 232.937 184.436C232.499 183.448 232.356 182.381 232.505 181.233C232.674 180.066 233.203 178.773 234.093 177.353C234.982 175.934 236.317 174.361 238.097 172.635C239.878 170.908 241.482 169.632 242.909 168.805C244.355 167.96 245.654 167.48 246.806 167.366C247.978 167.233 249.04 167.41 249.995 167.896C250.95 168.344 251.854 169.009 252.708 169.89L262.203 179.682ZM249.886 189.619C250.257 190.002 250.716 190.188 251.264 190.178C251.792 190.148 252.573 189.632 253.607 188.63C254.641 187.627 255.181 186.863 255.226 186.335C255.254 185.789 255.082 185.324 254.711 184.941L247.22 177.216C246.868 176.853 246.427 176.686 245.898 176.715C245.351 176.726 244.561 177.232 243.527 178.234C242.493 179.237 241.963 180.011 241.936 180.558C241.89 181.085 242.043 181.531 242.396 181.894L249.886 189.619ZM291.223 162.073L282.177 170.844C279.784 173.165 277.54 174.413 275.444 174.588C273.367 174.744 271.363 173.827 269.433 171.836L260.745 162.876C258.815 160.885 257.96 158.854 258.18 156.783C258.42 154.694 259.736 152.489 262.129 150.168L269.308 143.207C269.672 142.854 270.014 142.69 270.334 142.714C270.655 142.7 270.992 142.875 271.345 143.238L274.714 146.713C275.067 147.077 275.24 147.429 275.235 147.768C275.23 148.07 275.046 148.397 274.682 148.749L268.709 154.541C268.116 155.117 267.796 155.668 267.75 156.195C267.686 156.704 267.886 157.197 268.35 157.676L275.005 164.539C275.469 165.018 275.918 165.27 276.351 165.295C276.803 165.302 277.25 165.092 277.69 164.665L280.476 161.964L276.132 157.484C275.779 157.121 275.605 156.788 275.61 156.486C275.615 156.147 275.799 155.801 276.163 155.448L280.614 151.132C280.978 150.78 281.32 150.615 281.64 150.639C281.961 150.625 282.298 150.8 282.651 151.164L291.255 160.037C291.607 160.401 291.781 160.752 291.776 161.092C291.771 161.393 291.587 161.721 291.223 162.073Z" fill="white"/>
</svg>
